<?xml version="1.0" encoding="UTF-8"?>
<!--Generator: Apple Native CoreSVG 175-->
<!DOCTYPE svg
PUBLIC "-//W3C//DTD SVG 1.1//EN"
       "http://www.w3.org/Graphics/SVG/1.1/DTD/svg11.dtd">
<svg version="1.1" xmlns="http://www.w3.org/2000/svg" xmlns:xlink="http://www.w3.org/1999/xlink" width="17.334" height="21.9238">
 <g>
  <rect height="21.9238" opacity="0" width="17.334" x="0" y="0"/>
  <path d="M0 16.9336Q0 18.4473 0.766602 19.2041Q1.5332 19.9609 3.06641 19.9609L14.5605 19.9609Q15.8691 19.9609 16.6016 19.2041Q17.334 18.4473 17.334 16.9336L17.334 6.82617Q17.334 5.3125 16.5625 4.55566Q15.791 3.79883 14.2676 3.79883L12.7051 3.79883Q12.6855 2.77344 12.1338 1.90918Q11.582 1.04492 10.6738 0.522461Q9.76562 0 8.66211 0Q7.55859 0 6.65039 0.522461Q5.74219 1.04492 5.19531 1.90918Q4.64844 2.77344 4.61914 3.79883L3.06641 3.79883Q1.5332 3.79883 0.766602 4.55566Q0 5.3125 0 6.82617ZM1.57227 16.8555L1.57227 6.9043Q1.57227 6.14258 1.96289 5.75684Q2.35352 5.37109 3.08594 5.37109L14.2383 5.37109Q14.9609 5.37109 15.3613 5.75684Q15.7617 6.14258 15.7617 6.9043L15.7617 16.8555Q15.7617 17.6172 15.4004 18.0029Q15.0391 18.3887 14.5312 18.3887L3.08594 18.3887Q2.35352 18.3887 1.96289 18.0029Q1.57227 17.6172 1.57227 16.8555ZM6.19141 3.79883Q6.21094 3.16406 6.54297 2.63672Q6.875 2.10938 7.42676 1.79688Q7.97852 1.48438 8.66211 1.48438Q9.35547 1.48438 9.90723 1.79688Q10.459 2.10938 10.7861 2.63672Q11.1133 3.16406 11.1328 3.79883Z" fill="rgba(0,0,0,0.85)"/>
 </g>
</svg>
