<?xml version="1.0" encoding="UTF-8"?>
<!--Generator: Apple Native CoreSVG 175-->
<!DOCTYPE svg
PUBLIC "-//W3C//DTD SVG 1.1//EN"
       "http://www.w3.org/Graphics/SVG/1.1/DTD/svg11.dtd">
<svg version="1.1" xmlns="http://www.w3.org/2000/svg" xmlns:xlink="http://www.w3.org/1999/xlink" width="19.3945" height="18.5254">
 <g>
  <rect height="18.5254" opacity="0" width="19.3945" x="0" y="0"/>
  <path d="M0 6.49414Q0 8.57422 1.09863 10.6104Q2.19727 12.6465 4.21875 14.5752Q6.24023 16.5039 8.99414 18.2617Q9.15039 18.3594 9.35059 18.4424Q9.55078 18.5254 9.69727 18.5254Q9.85352 18.5254 10.0537 18.4424Q10.2539 18.3594 10.4102 18.2617Q13.1641 16.5039 15.1807 14.5752Q17.1973 12.6465 18.2959 10.6104Q19.3945 8.57422 19.3945 6.49414Q19.3945 5.19531 18.9795 4.11621Q18.5645 3.03711 17.8174 2.24609Q17.0703 1.45508 16.0596 1.02539Q15.0488 0.595703 13.8574 0.595703Q12.5 0.595703 11.4307 1.19141Q10.3613 1.78711 9.69727 2.77344Q9.04297 1.78711 7.96875 1.19141Q6.89453 0.595703 5.53711 0.595703Q4.35547 0.595703 3.34473 1.02539Q2.33398 1.45508 1.58203 2.24609Q0.830078 3.03711 0.415039 4.11621Q0 5.19531 0 6.49414ZM1.57227 6.49414Q1.57227 5.19531 2.08496 4.22363Q2.59766 3.25195 3.49121 2.70996Q4.38477 2.16797 5.51758 2.16797Q6.43555 2.16797 7.10938 2.49512Q7.7832 2.82227 8.25195 3.31055Q8.7207 3.79883 9.0332 4.28711Q9.23828 4.58008 9.37988 4.68262Q9.52148 4.78516 9.69727 4.78516Q9.87305 4.78516 10.0098 4.67773Q10.1465 4.57031 10.3613 4.28711Q10.6934 3.80859 11.167 3.31543Q11.6406 2.82227 12.2998 2.49512Q12.959 2.16797 13.877 2.16797Q15.0098 2.16797 15.9033 2.70996Q16.7969 3.25195 17.3096 4.22363Q17.8223 5.19531 17.8223 6.49414Q17.8223 7.85156 17.168 9.24316Q16.5137 10.6348 15.3955 11.9727Q14.2773 13.3105 12.8564 14.5264Q11.4355 15.7422 9.90234 16.7578Q9.73633 16.875 9.69727 16.875Q9.6582 16.875 9.50195 16.7578Q7.96875 15.7422 6.54785 14.5264Q5.12695 13.3105 4.00391 11.9727Q2.88086 10.6348 2.22656 9.24316Q1.57227 7.85156 1.57227 6.49414Z" fill="rgba(0,0,0,0.85)"/>
 </g>
</svg>
