<?xml version="1.0" encoding="UTF-8"?>
<!--Generator: Apple Native CoreSVG 175-->
<!DOCTYPE svg
PUBLIC "-//W3C//DTD SVG 1.1//EN"
       "http://www.w3.org/Graphics/SVG/1.1/DTD/svg11.dtd">
<svg version="1.1" xmlns="http://www.w3.org/2000/svg" xmlns:xlink="http://www.w3.org/1999/xlink" width="23.3105" height="22.1582">
 <g>
  <rect height="22.1582" opacity="0" width="23.3105" x="0" y="0"/>
  <path d="M8.83789 19.502L14.4727 19.502L14.4727 12.3926Q14.4727 12.0605 14.2676 11.8555Q14.0625 11.6504 13.7305 11.6504L9.58984 11.6504Q9.24805 11.6504 9.04297 11.8555Q8.83789 12.0605 8.83789 12.3926ZM5.01953 20.5078L18.2324 20.5078Q19.2773 20.5078 19.8535 19.9414Q20.4297 19.375 20.4297 18.3496L20.4297 7.55859L18.8574 6.48438L18.8574 17.9492Q18.8574 18.4277 18.6133 18.6816Q18.3691 18.9355 17.9004 18.9355L5.35156 18.9355Q4.88281 18.9355 4.63379 18.6816Q4.38477 18.4277 4.38477 17.9492L4.38477 6.49414L2.8125 7.55859L2.8125 18.3496Q2.8125 19.375 3.39355 19.9414Q3.97461 20.5078 5.01953 20.5078ZM0 9.63867Q0 9.94141 0.224609 10.1807Q0.449219 10.4199 0.839844 10.4199Q1.04492 10.4199 1.21582 10.3223Q1.38672 10.2246 1.54297 10.1074L11.3184 1.9043Q11.4844 1.75781 11.665 1.75781Q11.8457 1.75781 12.0117 1.9043L21.7871 10.1074Q21.9336 10.2246 22.1045 10.3223Q22.2754 10.4199 22.4805 10.4199Q22.8223 10.4199 23.0664 10.2197Q23.3105 10.0195 23.3105 9.66797Q23.3105 9.25781 23.0078 9.00391L12.8418 0.458984Q12.2949 0 11.665 0Q11.0352 0 10.4883 0.458984L0.3125 9.00391Q0 9.25781 0 9.63867ZM17.9785 5.23438L20.4297 7.30469L20.4297 2.79297Q20.4297 2.4707 20.2393 2.28027Q20.0488 2.08984 19.7266 2.08984L18.6816 2.08984Q18.3691 2.08984 18.1738 2.28027Q17.9785 2.4707 17.9785 2.79297Z" fill="rgba(0,0,0,0.85)"/>
 </g>
</svg>
